<svg width="200" height="200" viewBox="0 0 200 200" fill="none" xmlns="http://www.w3.org/2000/svg">
<g clip-path="url(#clip0_453_6019)">
<path d="M148 42H78C75.7909 42 74 43.7909 74 46V132C74 134.209 75.7909 136 78 136H148C150.209 136 152 134.209 152 132V46C152 43.7909 150.209 42 148 42Z" fill="#E5F5F5"/>
<path d="M97 178C122.957 178 144 174.418 144 170C144 165.582 122.957 162 97 162C71.0426 162 50 165.582 50 170C50 174.418 71.0426 178 97 178Z" fill="#DBDBDB"/>
<path d="M62 147.999V55.999" stroke="#2E1A47" stroke-width="3" stroke-linecap="round"/>
<path d="M134 147.999V55.999" stroke="#2E1A47" stroke-width="3" stroke-linecap="round"/>
<path d="M62.879 56.369L69.897 59.359L76.919 56.369L83.944 59.359L90.969 56.369L97.994 59.359L105.017 56.369L112.041 59.359L119.071 56.369L126.106 59.359L133.141 56.369" stroke="#2E1A47" stroke-width="3" stroke-linecap="round"/>
<path d="M133.138 147.779L126.12 144.789L119.098 147.779L112.073 144.789L105.049 147.779L98.024 144.789L91.001 147.779L83.979 144.789L76.949 147.779L69.914 144.789L62.879 147.779" stroke="#2E1A47" stroke-width="3" stroke-linecap="round"/>
<path d="M75.528 79.506H102.32" stroke="#2E1A47" stroke-width="3" stroke-linecap="round"/>
<path d="M75.528 109.902H118.082" stroke="#2E1A47" stroke-width="3" stroke-linecap="round"/>
<path d="M75.528 118.008H118.082" stroke="#2E1A47" stroke-width="3" stroke-linecap="round"/>
<path d="M75.528 87.879H92.273" stroke="#2E1A47" stroke-width="3" stroke-linecap="round"/>
<path d="M126 34C127.105 34 128 33.1046 128 32C128 30.8954 127.105 30 126 30C124.895 30 124 30.8954 124 32C124 33.1046 124.895 34 126 34Z" fill="#4C3A69"/>
<path d="M161 138C162.657 138 164 136.657 164 135C164 133.343 162.657 132 161 132C159.343 132 158 133.343 158 135C158 136.657 159.343 138 161 138Z" fill="#4C3A69"/>
<path d="M50 138C51.1046 138 52 137.105 52 136C52 134.895 51.1046 134 50 134C48.8954 134 48 134.895 48 136C48 137.105 48.8954 138 50 138Z" fill="#4C3A69"/>
<path d="M52 44C53.1046 44 54 43.1046 54 42C54 40.8954 53.1046 40 52 40C50.8954 40 50 40.8954 50 42C50 43.1046 50.8954 44 52 44Z" fill="#4C3A69"/>
<path d="M158 64C159.105 64 160 63.1046 160 62C160 60.8954 159.105 60 158 60C156.895 60 156 60.8954 156 62C156 63.1046 156.895 64 158 64Z" fill="#4C3A69"/>
<path d="M41 56C42.6569 56 44 54.6569 44 53C44 51.3431 42.6569 50 41 50C39.3431 50 38 51.3431 38 53C38 54.6569 39.3431 56 41 56Z" fill="#4C3A69"/>
<path d="M140 43C140 41.22 140.528 39.4799 141.517 37.9999C142.506 36.5198 143.911 35.3663 145.556 34.6851C147.2 34.0039 149.01 33.8257 150.756 34.1729C152.502 34.5202 154.105 35.3774 155.364 36.636C156.623 37.8947 157.48 39.4984 157.827 41.2442C158.174 42.99 157.996 44.7996 157.315 46.4442C156.634 48.0887 155.48 49.4943 154 50.4832C152.52 51.4722 150.78 52 149 52C146.614 51.9974 144.326 51.0483 142.639 49.361C140.952 47.6738 140.003 45.3861 140 43V43ZM149 50.5C150.418 50.4983 151.807 50.0944 153.005 49.3352C154.204 48.576 155.162 47.4926 155.769 46.2108C156.376 44.9289 156.607 43.5011 156.436 42.0931C156.264 40.6851 155.697 39.3546 154.8 38.256L144.255 48.8C145.592 49.8996 147.269 50.5005 149 50.5ZM141.5 43C141.5 44.7306 142.101 46.4075 143.2 47.744L153.744 37.2C152.645 36.3028 151.315 35.7355 149.907 35.564C148.499 35.3925 147.071 35.6238 145.789 36.231C144.507 36.8382 143.424 37.7965 142.665 38.9946C141.906 40.1927 141.502 41.5816 141.5 43Z" fill="#72569C"/>
<path d="M30 101C30 99.22 30.5278 97.4799 31.5168 95.9999C32.5057 94.5198 33.9113 93.3663 35.5558 92.6851C37.2004 92.0039 39.01 91.8257 40.7558 92.1729C42.5016 92.5202 44.1053 93.3774 45.364 94.636C46.6226 95.8947 47.4798 97.4984 47.8271 99.2442C48.1743 100.99 47.9961 102.8 47.3149 104.444C46.6337 106.089 45.4802 107.494 44.0001 108.483C42.5201 109.472 40.78 110 39 110C36.6139 109.997 34.3262 109.048 32.639 107.361C30.9517 105.674 30.0026 103.386 30 101V101ZM39 108.5C40.4184 108.498 41.8073 108.094 43.0054 107.335C44.2035 106.576 45.1618 105.493 45.769 104.211C46.3762 102.929 46.6075 101.501 46.436 100.093C46.2645 98.6851 45.6972 97.3546 44.8 96.256L34.255 106.8C35.5918 107.9 37.2691 108.501 39 108.5ZM31.5 101C31.4997 102.731 32.1006 104.407 33.2 105.744L43.744 95.2C42.6454 94.3028 41.3149 93.7355 39.9069 93.564C38.4989 93.3925 37.0711 93.6238 35.7893 94.231C34.5074 94.8382 33.424 95.7965 32.6648 96.9946C31.9056 98.1927 31.5017 99.5816 31.5 101Z" fill="#72569C"/>
</g>
<defs>
<clipPath id="clip0_453_6019">
<rect width="200" height="200" fill="white"/>
</clipPath>
</defs>
</svg>
