<svg width="100" height="100" viewBox="0 0 100 100" fill="none" xmlns="http://www.w3.org/2000/svg">
<g clip-path="url(#clip0_8353_9788)">
<path d="M50 87C69.8823 87 86 84.5376 86 81.5C86 78.4624 69.8823 76 50 76C30.1177 76 14 78.4624 14 81.5C14 84.5376 30.1177 87 50 87Z" fill="#DBDBDB"/>
<path d="M81 28H28C26.8954 28 26 28.8954 26 30V63C26 64.1046 26.8954 65 28 65H81C82.1046 65 83 64.1046 83 63V30C83 28.8954 82.1046 28 81 28Z" fill="#E5F5F5"/>
<path d="M81.0003 31.0001C81.0003 30.7348 81.1056 30.4804 81.2932 30.2929C81.4807 30.1054 81.7351 30.0001 82.0003 30.0001C82.2655 30.0001 82.5198 30.1054 82.7074 30.2929C82.8949 30.4804 83.0003 30.7348 83.0003 31.0001C83.0003 31.2653 82.8949 31.5197 82.7074 31.7072C82.5198 31.8947 82.2655 32.0001 82.0003 32.0001C81.7351 32.0001 81.4807 31.8947 81.2932 31.7072C81.1056 31.5197 81.0003 31.2653 81.0003 31.0001ZM81.0003 28.0001V27.0001C81.0003 26.7348 81.1056 26.4804 81.2932 26.2929C81.4807 26.1054 81.7351 26.0001 82.0003 26.0001C82.2655 26.0001 82.5198 25.8947 82.7074 25.7072C82.8949 25.5197 83.0003 25.2653 83.0003 25.0001C83.0133 24.8655 82.9964 24.7297 82.9507 24.6025C82.9051 24.4752 82.8318 24.3597 82.7362 24.2641C82.6406 24.1685 82.5251 24.0953 82.3979 24.0496C82.2706 24.004 82.1348 23.987 82.0003 24.0001C81.8647 23.9871 81.7279 24.0045 81.5999 24.051C81.4718 24.0974 81.3558 24.1717 81.26 24.2686C81.1643 24.3655 81.0913 24.4826 81.0464 24.6111C81.0015 24.7397 80.9857 24.8766 81.0003 25.012C80.9938 25.2734 80.8857 25.5221 80.6991 25.7053C80.5124 25.8884 80.2618 25.9916 80.0003 25.9931H79.9873C79.7255 25.9897 79.4755 25.8837 79.291 25.6981C79.1064 25.5124 79.0021 25.2618 79.0003 25.0001C78.9887 24.6029 79.0583 24.2077 79.205 23.8384C79.3516 23.4692 79.5722 23.1338 79.8531 22.8528C80.134 22.5719 80.4694 22.3514 80.8386 22.2048C81.2079 22.0581 81.6032 21.9884 82.0003 22.0001C82.3974 21.9883 82.7928 22.0578 83.1621 22.2044C83.5314 22.351 83.8668 22.5716 84.1478 22.8526C84.4287 23.1336 84.6493 23.4689 84.7959 23.8382C84.9425 24.2075 85.012 24.6029 85.0003 25.0001C84.9996 25.6205 84.807 26.2255 84.4489 26.7321C84.0909 27.2388 83.5849 27.6222 83.0003 27.83V28.001C83.0003 28.2663 82.8949 28.5207 82.7074 28.7082C82.5198 28.8957 82.2655 29.001 82.0003 29.001C81.8689 29.001 81.7387 28.9752 81.6173 28.9249C81.4959 28.8745 81.3857 28.8008 81.2928 28.7078C81.1999 28.6149 81.1263 28.5044 81.0761 28.383C81.0259 28.2616 81.0001 28.1315 81.0003 28.0001Z" fill="#72569C"/>
<path d="M16.5 29C17.3284 29 18 28.3284 18 27.5C18 26.6716 17.3284 26 16.5 26C15.6716 26 15 26.6716 15 27.5C15 28.3284 15.6716 29 16.5 29Z" fill="#4C3A69"/>
<path d="M77.5 20C78.3284 20 79 19.3284 79 18.5C79 17.6716 78.3284 17 77.5 17C76.6716 17 76 17.6716 76 18.5C76 19.3284 76.6716 20 77.5 20Z" fill="#4C3A69"/>
<path d="M22 33H76C76.2652 33 76.5196 33.1054 76.7071 33.2929C76.8946 33.4804 77 33.7348 77 34V69H21V34C21 33.7348 21.1054 33.4804 21.2929 33.2929C21.4804 33.1054 21.7348 33 22 33V33Z" stroke="#2E1A47" stroke-width="2"/>
<path d="M13 73H85" stroke="#2E1A47" stroke-width="2" stroke-linecap="round"/>
<path d="M73 37H25V65H73V37Z" stroke="#2E1A47" stroke-width="2"/>
<path d="M91 22C91.5523 22 92 21.5523 92 21C92 20.4477 91.5523 20 91 20C90.4477 20 90 20.4477 90 21C90 21.5523 90.4477 22 91 22Z" fill="#4C3A69"/>
<path d="M90.5 66C91.3284 66 92 65.3284 92 64.5C92 63.6716 91.3284 63 90.5 63C89.6716 63 89 63.6716 89 64.5C89 65.3284 89.6716 66 90.5 66Z" fill="#4C3A69"/>
<path d="M20 20C20.5523 20 21 19.5523 21 19C21 18.4477 20.5523 18 20 18C19.4477 18 19 18.4477 19 19C19 19.5523 19.4477 20 20 20Z" fill="#4C3A69"/>
<path d="M9 66C9.55228 66 10 65.5523 10 65C10 64.4477 9.55228 64 9 64C8.44772 64 8 64.4477 8 65C8 65.5523 8.44772 66 9 66Z" fill="#4C3A69"/>
<path d="M12.3331 63.3001C12.3308 63.2104 12.3462 63.1211 12.3785 63.0374C12.4107 62.9536 12.4591 62.877 12.521 62.812C12.5828 62.747 12.6569 62.6948 12.739 62.6584C12.821 62.6221 12.9094 62.6022 12.9991 62.6C13.1803 62.6044 13.3523 62.6806 13.4774 62.8119C13.6025 62.9431 13.6704 63.1188 13.6661 63.3001C13.6683 63.3898 13.6529 63.4791 13.6205 63.5629C13.5882 63.6467 13.5397 63.7233 13.4777 63.7883C13.4158 63.8534 13.3416 63.9056 13.2595 63.9419C13.1773 63.9782 13.0889 63.9979 12.9991 64C12.9094 63.9978 12.821 63.9779 12.739 63.9415C12.6569 63.9052 12.5828 63.853 12.521 63.788C12.4591 63.723 12.4107 63.6465 12.3785 63.5627C12.3462 63.479 12.3308 63.3898 12.3331 63.3001ZM12.3331 61.2V60.5C12.3288 60.3189 12.3964 60.1436 12.5213 60.0123C12.6462 59.8811 12.818 59.8048 12.9991 59.8001C13.1803 59.7956 13.3523 59.7193 13.4774 59.588C13.6025 59.4568 13.6704 59.2812 13.6661 59.1C13.6771 59.0082 13.6676 58.9153 13.6385 58.8276C13.6093 58.74 13.5612 58.6598 13.4974 58.5929C13.4337 58.526 13.356 58.474 13.2698 58.4407C13.1837 58.4073 13.0912 58.3935 12.9991 58.4C12.4631 58.4 12.3411 58.784 12.3331 59.108C12.3329 59.2867 12.2632 59.4583 12.1387 59.5865C12.0142 59.7148 11.8447 59.7896 11.6661 59.795H11.657C11.4771 59.789 11.3069 59.712 11.1836 59.5808C11.0603 59.4496 10.994 59.2749 10.9991 59.095C10.9855 58.824 11.0272 58.5531 11.1216 58.2988C11.216 58.0445 11.3612 57.8122 11.5483 57.6157C11.7354 57.4193 11.9605 57.263 12.2099 57.1563C12.4593 57.0495 12.7278 56.9947 12.9991 56.995C13.2704 56.9947 13.5389 57.0495 13.7883 57.1563C14.0377 57.263 14.2627 57.4193 14.4498 57.6157C14.6369 57.8122 14.7821 58.0445 14.8765 58.2988C14.9709 58.5531 15.0127 58.824 14.9991 59.095C15.0043 59.5216 14.8794 59.9397 14.6411 60.2936C14.4028 60.6475 14.0623 60.9205 13.665 61.0761V61.196C13.6693 61.3773 13.6015 61.5528 13.4764 61.6841C13.3514 61.8153 13.1793 61.8915 12.998 61.896C12.8179 61.891 12.6469 61.8151 12.5224 61.6848C12.3979 61.5545 12.3298 61.3802 12.3331 61.2Z" fill="#72569C"/>
<path d="M49 58C53.4183 58 57 54.4183 57 50C57 45.5817 53.4183 42 49 42C44.5817 42 41 45.5817 41 50C41 54.4183 44.5817 58 49 58Z" stroke="#2E1A47" stroke-width="2"/>
<path d="M49 46V51" stroke="#2E1A47" stroke-width="2" stroke-linecap="round"/>
</g>
<defs>
<clipPath id="clip0_8353_9788">
<rect width="100" height="100" fill="white"/>
</clipPath>
</defs>
</svg>
