<svg xmlns="http://www.w3.org/2000/svg" xmlns:xlink="http://www.w3.org/1999/xlink" xml:space="preserve" viewBox="0 0 108.931 28.788"><defs><path id="a" d="M0 0h108.931v28.788H0z"/></defs><clipPath id="b"><use xlink:href="#a" overflow="visible"/></clipPath><path fill="#0078be" d="M35.782 17.436V9.279h5.466v1.492h-3.892v1.713h2.47v1.492h-2.47v3.46zm8.379-8.157h1.573v8.157h-1.573zm11.63 8.157h-1.398l-3.24-4.754a5 5 0 0 1-.338-.618q.035.292.035.618v4.754h-1.562V9.279h1.481l3.158 4.697q.198.326.338.617a5 5 0 0 1-.036-.617V9.279h1.562zm8.915 0-.629-1.689h-3.146l-.63 1.689h-1.689l3.123-8.157h1.538l3.123 8.157zm-1.142-3.123-.804-2.121a7 7 0 0 1-.256-.734 7 7 0 0 1-.256.734l-.805 2.121zm12.155 3.123h-1.398l-3.24-4.754a5 5 0 0 1-.338-.618q.035.292.035.618v4.754h-1.562V9.279h1.48l3.158 4.697q.198.326.338.617a5 5 0 0 1-.035-.617V9.279h1.562zm6.631.129c-2.485 0-3.427-2.07-3.427-4.207 0-.922.36-4.207 3.427-4.207 2.116 0 2.815 1.601 2.913 1.841l-1.41.641c-.568-.873-1.045-.967-1.503-.967-.778 0-1.795.602-1.795 2.692 0 .253.078 2.691 1.795 2.691q.85 0 1.48-1.048l1.445.548q-.909 2.016-2.925 2.016m6.013-8.286h1.573v8.157h-1.573zm10.547 8.157-.63-1.689h-3.146l-.63 1.689h-1.689l3.123-8.157h1.538l3.123 8.157zm-1.143-3.123-.804-2.121a7 7 0 0 1-.256-.734 7 7 0 0 1-.256.734l-.804 2.121zm5.652 3.123V9.279h1.574v6.643h3.938v1.514zM28.788 4.105C28.788 1.616 27.174 0 24.681 0H4.106C1.617 0 0 1.613 0 4.105v20.578c0 2.489 1.613 4.105 4.106 4.105h20.575c2.49 0 4.107-1.613 4.107-4.105zM24.49 26.961H4.297c-1.629 0-2.47-.838-2.47-2.469V4.296c0-1.628.839-2.469 2.47-2.469H24.49c1.629 0 2.471.838 2.471 2.469v20.196c0 1.628-.839 2.469-2.471 2.469M23.454 9.808v7.628h-2.098v-7.321c0-.508-.333-.836-.827-.836h-1.186v8.157h-2.098V9.279h-2.013v8.157h-2.098V7.458h7.97c1.464 0 2.35.907 2.35 2.35m-11.912-2.35v10.384c0 1.221-.545 3.488-4.111 3.488h-.883v-1.842h.883c1.402-.026 1.984-.617 2.008-1.633v-.419H7.684c-1.395 0-2.35-.94-2.35-2.349V9.808c0-1.405.934-2.35 2.35-2.35zM9.444 9.279H8.263c-.496 0-.832.347-.832.829v4.657c0 .502.354.848.856.848h1.157zm3.69 12.051h10.32v-1.842h-10.32z" clip-path="url(#b)"/></svg>